<!-- Stems monochrome icon — Android 13+ themed icons.
     Transparent background, solid "S" silhouette (colour is irrelevant — Android tints opaque pixels). -->
<svg xmlns="http://www.w3.org/2000/svg" viewBox="0 0 200 200" width="200" height="200">
  <g transform="translate(64.108,149.640) scale(0.15307,-0.15307)"><path d="M209.2196044921875 -15.4200439453125Q166.92962646484375 -15.4200439453125 129.83474731445312 -3.78997802734375Q92.7398681640625 7.840087890625 62.4200439453125 30.55010986328125Q57.55010986328125 34.840087890625 53.18017578125 40.275054931640625Q48.81024169921875 45.71002197265625 46.520263671875 52Q39.7803955078125 74.60980224609375 37.555450439453125 109.07461547851562Q35.33050537109375 143.5394287109375 34.49041748046875 171.20892333984375Q34.49041748046875 178.20892333984375 40.345428466796875 181.56393432617188Q46.200439453125 184.9189453125 54.200439453125 184.9189453125Q60.9403076171875 184.9189453125 65.50534057617188 182.27395629882812Q70.07037353515625 179.62896728515625 71.9403076171875 173.3389892578125Q92.81024169921875 97.20892333984375 133.7601318359375 59.56927490234375Q174.71002197265625 21.92962646484375 222.92962646484375 21.92962646484375Q256.76971435546875 21.92962646484375 281.5948791503906 36.784637451171875Q306.4200439453125 51.6396484375 320.18017578125 77.3997802734375Q333.9403076171875 103.159912109375 333.9403076171875 135.23028564453125Q333.9403076171875 173.04052734375 320.8752746582031 197.23562622070312Q307.81024169921875 221.43072509765625 282.81024169921875 240.1407470703125Q257.81024169921875 258.85076904296875 220.65032958984375 280.560791015625Q180.7803955078125 304.9808349609375 142.34542846679688 330.9158020019531Q103.91046142578125 356.85076904296875 78.91046142578125 391.9456481933594Q53.91046142578125 427.04052734375 53.91046142578125 478.23028564453125Q53.91046142578125 531.840087890625 79.66525268554688 573.5650329589844Q105.4200439453125 615.2899780273438 154.2398681640625 639.6449890136719Q203.0596923828125 664 271.60980224609375 664Q308.18975830078125 664 337.58953857421875 656.3550109863281Q366.98931884765625 648.7100219726562 384.72918701171875 641.1300659179688Q394.1790771484375 637.5501098632812 399.5340881347656 630.9850769042969Q404.88909912109375 624.4200439453125 407.759033203125 613.8102416992188Q413.46905517578125 592.8102416992188 419.1641540527344 564.7953186035156Q424.8592529296875 536.7803955078125 424.8592529296875 508.43072509765625Q424.8592529296875 496.85076904296875 408.6993408203125 496.85076904296875Q399.98931884765625 496.85076904296875 391.779296875 500.9957580566406Q383.56927490234375 505.1407470703125 381.56927490234375 511.43072509765625Q362.0191650390625 567.04052734375 332.279296875 596.0554504394531Q302.5394287109375 625.0703735351562 257.799560546875 625.0703735351562Q227.50958251953125 625.0703735351562 203.39443969726562 614.3603515625Q179.279296875 603.6503295898438 164.80914306640625 580.5351867675781Q150.3389892578125 557.4200439453125 150.3389892578125 519.479736328125Q150.3389892578125 491.799560546875 168.82406616210938 468.6044616699219Q187.30914306640625 445.40936279296875 218.87417602539062 423.8443298339844Q250.439208984375 402.279296875 288.59912109375 378.6993408203125Q330.26861572265625 353.92962646484375 363.3336486816406 326.8997802734375Q396.398681640625 299.86993408203125 415.4338684082031 265.36993408203125Q434.46905517578125 230.86993408203125 434.46905517578125 182.60980224609375Q434.46905517578125 120.13006591796875 406.4541320800781 75.48507690429688Q378.439208984375 30.840087890625 327.8443298339844 7.71002197265625Q277.24945068359375 -15.4200439453125 209.2196044921875 -15.4200439453125Z" fill="#111111"/></g>
</svg>
